<svg width="106" height="71" viewBox="0 0 106 71" fill="none" xmlns="http://www.w3.org/2000/svg">
<g clip-path="url(#clip0_266_3462)">
<path fill-rule="evenodd" clip-rule="evenodd" d="M100.172 29.9904H105.325V3.42439H100.172V29.9904Z" fill="#13387F"/>
<mask id="mask0_266_3462" style="mask-type:luminance" maskUnits="userSpaceOnUse" x="-36" y="-29" width="180" height="129">
<path d="M-35.3333 -28.4H143.689V99.0055H-35.3333V-28.4Z" fill="white"/>
</mask>
<g mask="url(#mask0_266_3462)">
<path fill-rule="evenodd" clip-rule="evenodd" d="M88.8035 28.4775C86.3725 28.4775 85.5872 27.4688 85.5872 24.7019C85.5872 21.9961 86.3725 20.9943 88.9117 20.9943H91.7692V27.9733C91.2344 28.1914 90.1238 28.4775 88.8035 28.4775ZM86.9413 30.2769C89.0201 30.2769 90.6994 29.7384 91.803 28.9818V29.9905H96.6377V18.0024C96.6377 13.7905 93.9158 12.3525 88.3701 12.3525C86.4065 12.3525 84.3684 12.6048 82.6891 12.891V14.438C83.9418 14.2607 85.6548 14.1178 87.1918 14.1178C90.1238 14.1178 91.7692 14.5811 91.7692 17.6071V19.5496H87.3341C82.7567 19.5496 80.5425 21.3487 80.5425 24.9471C80.5425 28.0822 82.6145 30.2769 86.9413 30.2769Z" fill="#13387F"/>
</g>
<mask id="mask1_266_3462" style="mask-type:luminance" maskUnits="userSpaceOnUse" x="-36" y="-29" width="180" height="129">
<path d="M-35.3333 -28.4H143.689V99.0055H-35.3333V-28.4Z" fill="white"/>
</mask>
<g mask="url(#mask1_266_3462)">
<path fill-rule="evenodd" clip-rule="evenodd" d="M67.0613 14.1858H69.526V25.0563C69.526 29.125 71.8891 30.1337 75.0309 30.1337C76.5341 30.1337 77.6786 29.9905 78.8974 29.7384V28.1912C78.3218 28.3003 77.8208 28.4092 77.1776 28.4092C75.3899 28.4092 74.6788 27.8301 74.6788 25.8876V14.1858H78.8974V12.5297H74.6788V7.5272H69.526V12.5297H67.0613V14.1858Z" fill="#13387F"/>
</g>
<mask id="mask2_266_3462" style="mask-type:luminance" maskUnits="userSpaceOnUse" x="-36" y="-29" width="180" height="129">
<path d="M-35.3333 -28.4H143.689V99.0055H-35.3333V-28.4Z" fill="white"/>
</mask>
<g mask="url(#mask2_266_3462)">
<path fill-rule="evenodd" clip-rule="evenodd" d="M59.5112 29.9904H64.6642V12.5296H59.5112V29.9904Z" fill="#13387F"/>
</g>
<mask id="mask3_266_3462" style="mask-type:luminance" maskUnits="userSpaceOnUse" x="-36" y="-29" width="180" height="129">
<path d="M-35.3333 -28.4H143.689V99.0055H-35.3333V-28.4Z" fill="white"/>
</mask>
<g mask="url(#mask3_266_3462)">
<path fill-rule="evenodd" clip-rule="evenodd" d="M27.3616 28.4775C24.9307 28.4775 24.1454 27.4688 24.1454 24.7019C24.1454 21.9961 24.9307 20.9943 27.4698 20.9943H30.3273V27.9733C29.7925 28.1914 28.6887 28.4775 27.3616 28.4775ZM25.4995 30.2769C27.5783 30.2769 29.2575 29.7384 30.3679 28.9818V29.9905H35.1958V18.0024C35.1958 13.7905 32.474 12.3525 26.935 12.3525C24.9647 12.3525 22.9265 12.6048 21.2473 12.891V14.438C22.4999 14.2607 24.213 14.1178 25.75 14.1178C28.6887 14.1178 30.3273 14.5811 30.3273 17.6071V19.5496H25.899C21.3217 19.5496 19.1008 21.3487 19.1008 24.9471C19.1008 28.0822 21.1726 30.2769 25.4995 30.2769Z" fill="#13387F"/>
</g>
<mask id="mask4_266_3462" style="mask-type:luminance" maskUnits="userSpaceOnUse" x="-36" y="-29" width="180" height="129">
<path d="M-35.3333 -28.4H143.689V99.0055H-35.3333V-28.4Z" fill="white"/>
</mask>
<g mask="url(#mask4_266_3462)">
<path fill-rule="evenodd" clip-rule="evenodd" d="M46.6055 28.3003C45.6712 28.3003 44.669 28.1162 43.8497 27.8301V14.7652C44.669 14.4788 45.6372 14.295 46.5649 14.295C49.7135 14.295 51.2167 16.0601 51.2167 21.2806C51.2167 26.5693 49.6797 28.3003 46.6055 28.3003ZM43.8497 13.4838V12.5297H38.7373V37.1874H43.8497V29.0569C45.17 29.9156 46.7816 30.2766 48.6031 30.2766C53.3971 30.2766 56.4035 27.0054 56.4035 21.2806C56.4035 15.4467 53.2887 12.2435 48.6031 12.2435C46.7612 12.2435 45.143 12.6046 43.8497 13.4838Z" fill="#13387F"/>
</g>
<mask id="mask5_266_3462" style="mask-type:luminance" maskUnits="userSpaceOnUse" x="-36" y="-29" width="180" height="129">
<path d="M-35.3333 -28.4H143.689V99.0055H-35.3333V-28.4Z" fill="white"/>
</mask>
<g mask="url(#mask5_266_3462)">
<path fill-rule="evenodd" clip-rule="evenodd" d="M12.7358 30.1677C14.4895 30.1677 16.1687 29.9565 17.5975 29.7044V28.1571C16.4939 28.3344 15.275 28.4435 14.1646 28.4435C10.0544 28.4435 8.15847 26.8554 8.15847 21.2398C8.15847 15.5899 10.0544 14.0769 14.1646 14.0769C15.275 14.0769 16.3854 14.1859 17.4893 14.329V12.8227C16.0943 12.5297 14.4895 12.3525 12.7358 12.3525C6.54685 12.3525 2.97168 15.1605 2.97168 21.2807C2.97168 27.3257 6.51304 30.1677 12.7358 30.1677Z" fill="#13387F"/>
</g>
<mask id="mask6_266_3462" style="mask-type:luminance" maskUnits="userSpaceOnUse" x="-36" y="-29" width="180" height="129">
<path d="M-35.3333 -28.4H143.689V99.0055H-35.3333V-28.4Z" fill="white"/>
</mask>
<g mask="url(#mask6_266_3462)">
<path fill-rule="evenodd" clip-rule="evenodd" d="M93.882 59.7938H98.4593L105.325 42.333H103.213L97.8161 56.2294L92.3044 42.333H86.9077L93.882 59.7938Z" fill="#00A4C4"/>
</g>
<mask id="mask7_266_3462" style="mask-type:luminance" maskUnits="userSpaceOnUse" x="-36" y="-29" width="180" height="129">
<path d="M-35.3333 -28.4H143.689V99.0055H-35.3333V-28.4Z" fill="white"/>
</mask>
<g mask="url(#mask7_266_3462)">
<path fill-rule="evenodd" clip-rule="evenodd" d="M79.1479 43.7778C81.9376 43.7778 82.5064 45.502 82.6148 50.4022H75.6065C75.681 45.468 76.5003 43.7778 79.1479 43.7778ZM80.7933 59.9709C82.8991 59.9709 84.7613 59.7937 86.4811 59.3984V57.8514C84.9373 58.1376 83.4001 58.2467 81.8293 58.2467C77.1776 58.2467 75.715 57.1631 75.6065 52.0175H87.3004C87.3749 51.5541 87.4089 51.1179 87.4089 50.7226C87.4089 44.8206 84.2941 42.0468 79.1141 42.0468C74.3201 42.0468 70.562 44.9295 70.562 51.0498C70.562 58.1376 74.7466 59.9709 80.7933 59.9709Z" fill="#00A4C4"/>
</g>
<mask id="mask8_266_3462" style="mask-type:luminance" maskUnits="userSpaceOnUse" x="-36" y="-29" width="180" height="129">
<path d="M-35.3333 -28.4H143.689V99.0055H-35.3333V-28.4Z" fill="white"/>
</mask>
<g mask="url(#mask8_266_3462)">
<path fill-rule="evenodd" clip-rule="evenodd" d="M64.6642 43.4302V42.3329H64.3053H59.5112V59.7937H64.6642V44.7865C66.2352 44.3163 67.7046 44.1391 69.1671 44.1391C69.8104 44.1391 70.4536 44.1391 71.0631 44.1731V42.517C70.4198 42.3738 69.6005 42.2648 69.0249 42.2648C67.2778 42.2648 65.8221 42.6193 64.6642 43.4302Z" fill="#00A4C4"/>
</g>
<mask id="mask9_266_3462" style="mask-type:luminance" maskUnits="userSpaceOnUse" x="-36" y="-29" width="180" height="129">
<path d="M-35.3333 -28.4H143.689V99.0055H-35.3333V-28.4Z" fill="white"/>
</mask>
<g mask="url(#mask9_266_3462)">
<path fill-rule="evenodd" clip-rule="evenodd" d="M46.6055 58.1035C45.6712 58.1035 44.669 57.9195 43.8497 57.6333V44.5684C44.669 44.282 45.6372 44.0982 46.5649 44.0982C49.7135 44.0982 51.2167 45.8633 51.2167 51.0838C51.2167 56.3725 49.6797 58.1035 46.6055 58.1035ZM48.6031 60.0799C53.3971 60.0799 56.4035 56.8087 56.4035 51.0838C56.4035 45.2499 53.2887 42.0467 48.6031 42.0467C46.7612 42.0467 45.143 42.4078 43.8497 43.287V42.3329H38.7373V66.9906H43.8497V58.8601C45.17 59.7188 46.7816 60.0799 48.6031 60.0799Z" fill="#00A4C4"/>
</g>
<mask id="mask10_266_3462" style="mask-type:luminance" maskUnits="userSpaceOnUse" x="-36" y="-29" width="180" height="129">
<path d="M-35.3333 -28.4H143.689V99.0055H-35.3333V-28.4Z" fill="white"/>
</mask>
<g mask="url(#mask10_266_3462)">
<path fill-rule="evenodd" clip-rule="evenodd" d="M62.0913 3.42454C61.3262 4.30376 59.5589 6.5868 59.5115 8.53595V8.61107C59.5115 10.0423 60.6693 11.2008 62.0913 11.2008C63.5132 11.2008 64.6642 10.0423 64.6642 8.61107V8.53595C64.6168 6.57995 62.8495 4.30376 62.0913 3.42454Z" fill="#00A4C4"/>
</g>
</g>
<defs>
<clipPath id="clip0_266_3462">
<rect width="169.6" height="120.7" fill="white" transform="translate(-32.9778 -26.0333)"/>
</clipPath>
</defs>
</svg>
