<svg width="92" height="122" viewBox="0 0 92 122" fill="none" xmlns="http://www.w3.org/2000/svg">
<g clip-path="url(#clip0_501_2197)">
<path d="M57 64.6667C55.988 64.6667 55.1667 63.8453 55.1667 62.8333C55.1667 61.8213 55.988 61 57 61C58.012 61 58.8334 61.8213 58.8334 62.8333C58.8334 63.8453 58.012 64.6667 57 64.6667ZM65.91 62.9342C64.9787 58.1767 61.5724 54.2332 57 52.6162V48.8817C57 48.0658 56.6022 47.2922 55.9367 46.8118C55.2749 46.3315 54.4572 46.205 53.6927 46.4617C51.4084 47.2225 49.586 49.3272 48.9719 51.8352H45.0834C44.5774 51.8352 44.1667 52.2458 44.1667 52.7518C44.1667 53.2578 44.5774 53.6685 45.0834 53.6685H49.729C50.1874 53.6685 50.5742 53.3293 50.6365 52.8765C50.9354 50.704 52.3965 48.8267 54.272 48.2015C54.5434 48.1062 54.7597 48.2235 54.8624 48.2987C55.0549 48.4362 55.1649 48.6488 55.1649 48.8817V53.2817C55.1649 53.6887 55.4325 54.0443 55.8194 54.1598C60.2615 55.4817 63.5542 59.2968 64.2087 63.8802C64.2729 64.3312 64.7899 64.6667 65.2464 64.6667C65.7505 64.6667 66.163 65.0792 66.163 65.5833V69.25C66.163 69.7542 65.7505 70.1667 65.2464 70.1667H64.0107C63.6569 70.1667 63.3342 70.3702 63.1839 70.6892C61.4624 74.3137 58.0725 76.8143 54.118 77.3772C53.6652 77.4413 53.3297 77.8282 53.3297 78.2847V79.3315C53.3297 80.3435 52.5084 81.1648 51.4964 81.1648C50.4844 81.1648 49.663 80.3435 49.663 79.3315V78.4148C49.663 77.9088 49.2524 77.4982 48.7464 77.4982H39.5797C39.0737 77.4982 38.663 77.9088 38.663 78.4148V79.3315C38.663 80.3435 37.8399 81.1648 36.8297 81.1648C35.8195 81.1648 34.9964 80.3435 34.9964 79.3315V77.8832C34.9964 77.478 34.7287 77.1205 34.3419 77.005C28.8932 75.3825 25.3384 70.0787 25.8884 64.3935C26.3394 59.7387 29.6632 55.7622 34.3602 54.268C34.8424 54.114 35.1082 53.5988 34.956 53.1167C34.802 52.6327 34.2869 52.3687 33.8047 52.5208C31.0657 53.3935 28.7392 55.0105 27.036 57.0932C26.3577 55.9272 25.9489 54.466 25.8554 52.7023C25.826 52.1963 25.386 51.7728 24.891 51.8352C24.385 51.8627 23.9982 52.2935 24.0239 52.7977C24.154 55.2067 24.792 57.1848 25.8957 58.712C24.9002 60.373 24.2549 62.2412 24.0642 64.2193C23.4537 70.5425 27.2505 76.4605 33.1649 78.5505V79.3333C33.1649 81.3555 34.8094 83 36.8315 83C38.8537 83 40.4982 81.3555 40.4982 79.3333H47.8315C47.8315 81.3555 49.476 83 51.4982 83C53.5204 83 55.1649 81.3555 55.1649 79.3333V79.0583C59.2 78.2425 62.6467 75.6612 64.579 72H65.2482C66.7644 72 67.9982 70.7662 67.9982 69.25V65.5833C67.9982 64.322 67.1439 63.255 65.9082 62.9342H65.91ZM34.0834 46.3333H38.6667V50.9167C38.6667 51.4227 39.0774 51.8333 39.5834 51.8333C40.0894 51.8333 40.5 51.4227 40.5 50.9167V46.3333H45.0834C45.5894 46.3333 46 45.9227 46 45.4167C46 44.9107 45.5894 44.5 45.0834 44.5H40.5V39.9167C40.5 39.4107 40.0894 39 39.5834 39C39.0774 39 38.6667 39.4107 38.6667 39.9167V44.5H34.0834C33.5774 44.5 33.1667 44.9107 33.1667 45.4167C33.1667 45.9227 33.5774 46.3333 34.0834 46.3333Z" fill="#04A4C4"/>
</g>
<defs>
<clipPath id="clip0_501_2197">
<rect width="44" height="44" fill="white" transform="translate(24 39)"/>
</clipPath>
</defs>
</svg>
